<svg id="svg-preview" xmlns="http://www.w3.org/2000/svg" width="180" height="180" fill="none">
    <path id="SETTING_BG_COLOR" fill="#fff" d="M164 90c0 40.869-33.131 74-74 74-40.87 0-74-33.131-74-74 0-40.87 33.13-74 74-74 40.869 0 74 33.13 74 74Z"/>
    <path id="SETTING_PIP_COLOR_PRIMARY" fill="#000" fill-rule="evenodd" d="M157 89h5v2h-5v-2ZM89 23v-5h2v5h-2Zm0 139v-5h2v5h-2ZM18 89h5v2h-5v-2Zm120.083 47.669 3.536 3.535-1.414 1.415-3.536-3.536 1.414-1.414ZM39.795 38.381l3.536 3.536-1.414 1.414-3.536-3.536 1.414-1.414Zm3.535 99.702-3.535 3.536-1.414-1.414 3.536-3.536 1.414 1.414Zm98.289-98.288-3.536 3.536-1.414-1.415 3.535-3.535 1.415 1.414Z" clip-rule="evenodd"/>
    <g id="SETTING_PIP_COLOR_SECONDARY" fill="#AAA" fill-rule="evenodd" clip-rule="evenodd">
      <path d="m106.892 23.092.777-2.897 1.932.517-.777 2.898-1.932-.518ZM70.399 159.288l.776-2.898 1.932.518-.776 2.898-1.932-.518Zm53.235-129.544 1.5-2.598 1.732 1-1.5 2.598-1.732-1Zm-70.5 122.11 1.5-2.598 1.732 1-1.5 2.598-1.732-1ZM71.175 23.61l-.776-2.898 1.932-.517.776 2.897-1.932.518Zm36.494 136.195-.776-2.897 1.931-.518.777 2.898-1.932.517ZM54.634 30.744l-1.5-2.598 1.732-1 1.5 2.598-1.732 1Zm70.5 122.11-1.5-2.598 1.732-1 1.5 2.598-1.732 1Z"/>
      <path d="m54.634 30.744-1.5-2.598 1.732-1 1.5 2.598-1.732 1Zm70.5 122.11-1.5-2.598 1.732-1 1.5 2.598-1.732 1Zm-95.39-96.488-2.598-1.5 1-1.732 2.598 1.5-1 1.732Zm122.11 70.5-2.598-1.5 1-1.732 2.598 1.5-1 1.732ZM23.092 73.108l-2.897-.777.517-1.932 2.898.777-.518 1.931Zm136.196 36.493-2.898-.777.518-1.932 2.898.777-.518 1.932Zm-135.678-.776-2.898.776-.518-1.932 2.898-.776.518 1.932ZM159.805 72.33l-2.897.777-.518-1.932 2.898-.776.517 1.932ZM30.744 125.366l-2.598 1.5-1-1.732 2.598-1.5 1 1.732Zm122.11-70.5-2.598 1.5-1-1.732 2.598-1.5 1 1.732Z"/>
    </g>
    <path id="SETTING_RING_NIGHT_COLOR" fill="#05A" d="M.544 99.885a90 90 0 0 0 178.886.224l-16.037-1.812A73.86 73.86 0 0 1 40.689 144.99a73.86 73.86 0 0 1-24.103-46.878L.544 99.885Z"/>
    <path id="SETTING_RING_DAY_COLOR" fill="#05AAFF" d="M179.385 79.497A90.002 90.002 0 0 0 30.515 22.46 90 90 0 0 0 .685 78.92L16.7 80.906a73.861 73.861 0 0 1 146.655.473l16.029-1.883Z"/>
    <path id="SETTING_RING_SUNRISE_COLOR" fill="#FAA" d="M.555 80.018a90 90 0 0 0-.15 18.51l16.066-1.53a73.86 73.86 0 0 1 .124-15.19l-16.04-1.79Z"/>
    <path id="SETTING_RING_SUNSET_COLOR" fill="#FFAA01" d="M179.551 98.977a89.957 89.957 0 0 0-.122-19.096l-16.036 1.815a73.892 73.892 0 0 1 .1 15.671l16.058 1.61Z"/>
    <g id="SETTING_RING_STROKE_COLOR" fill="#000">
      <path d="M.797 78.047a90 90 0 0 0-.37 3.189l16.063 1.572c.085-.875.187-1.747.303-2.618L.797 78.047ZM.342 97.844c.094 1.066.206 2.13.337 3.192l16.017-1.979c-.107-.871-.2-1.745-.276-2.62L.342 97.844ZM179.59 81.416a92.206 92.206 0 0 0-.364-3.19l-16 2.111c.115.871.214 1.744.298 2.618l16.066-1.54Zm-.205 19.089a87.38 87.38 0 0 0 .317-3.194L163.617 96c-.072.875-.159 1.75-.261 2.622l16.029 1.883Z"/>
      <path fill-rule="evenodd" d="M90 161c39.212 0 71-31.788 71-71s-31.788-71-71-71-71 31.788-71 71 31.788 71 71 71Zm0 3c40.869 0 74-33.131 74-74 0-40.87-33.131-74-74-74-40.87 0-74 33.13-74 74 0 40.869 33.13 74 74 74Z" clip-rule="evenodd"/>
    </g>
    <path id="SETTING_SUBTEXT_PRIMARY_COLOR" fill="#000" d="M120.726 105.154v10.664h-2.131v-10.664h2.131Zm2.652 0v1.78h-7.383v-1.78h7.383Zm-10.752 7.112h2.132c-.03.8-.191 1.477-.484 2.028a2.94 2.94 0 0 1-1.252 1.246c-.537.283-1.187.424-1.949.424-.59 0-1.115-.097-1.574-.293a3.14 3.14 0 0 1-1.172-.879c-.322-.385-.567-.861-.733-1.428-.161-.571-.241-1.228-.241-1.97v-1.809c0-.742.085-1.399.256-1.97.176-.572.425-1.05.747-1.436.327-.39.72-.683 1.179-.879.464-.2.987-.3 1.568-.3.776 0 1.426.146 1.948.439.522.293.925.721 1.208 1.282.289.557.462 1.238.52 2.044h-2.146c-.009-.508-.065-.906-.168-1.194-.098-.293-.254-.498-.469-.615-.215-.123-.512-.184-.893-.184-.283 0-.528.052-.733.154a1.187 1.187 0 0 0-.505.476c-.132.22-.23.508-.293.865a8.146 8.146 0 0 0-.088 1.303v1.824c0 .503.027.933.081 1.289.053.352.139.64.256.864a1.1 1.1 0 0 0 .476.491c.205.103.464.154.776.154.362 0 .652-.054.872-.161.225-.108.391-.301.498-.579.107-.278.169-.674.183-1.186Zm-7.243-2.608v1.78c0 .752-.093 1.411-.278 1.978-.181.561-.44 1.032-.777 1.413a3.165 3.165 0 0 1-1.208.85c-.469.19-.989.285-1.56.285a4.175 4.175 0 0 1-1.567-.285 3.311 3.311 0 0 1-1.216-.85 3.988 3.988 0 0 1-.784-1.413c-.186-.567-.278-1.226-.278-1.978v-1.78c0-.771.09-1.445.27-2.021.181-.581.442-1.065.784-1.45a3.26 3.26 0 0 1 1.216-.879 3.919 3.919 0 0 1 1.56-.301c.572 0 1.092.1 1.56.301.469.195.874.488 1.216.879.342.385.603.869.784 1.45.185.576.278 1.25.278 2.021Zm-2.131 1.78v-1.794c0-.508-.037-.94-.11-1.297-.073-.361-.183-.657-.33-.886a1.373 1.373 0 0 0-.534-.505 1.58 1.58 0 0 0-.733-.162c-.278 0-.525.054-.74.162a1.38 1.38 0 0 0-.534.505c-.142.229-.249.525-.323.886a7.02 7.02 0 0 0-.102 1.297v1.794c0 .488.037.906.11 1.252.073.347.183.63.329.85.147.22.325.383.535.491.215.102.462.154.74.154.273 0 .515-.052.725-.154.215-.108.393-.271.535-.491.141-.22.249-.503.322-.85a6.16 6.16 0 0 0 .11-1.252Zm-16.449 2.717h.102c.469 0 .87-.068 1.201-.205a1.98 1.98 0 0 0 .82-.6c.216-.269.372-.596.47-.982a5.54 5.54 0 0 0 .146-1.34v-2.058a5.35 5.35 0 0 0-.08-.989 2.528 2.528 0 0 0-.228-.703 1.221 1.221 0 0 0-.33-.425.64.64 0 0 0-.834.037 1.342 1.342 0 0 0-.322.454c-.083.19-.147.407-.19.652a4.294 4.294 0 0 0-.067.761c0 .269.022.525.066.769.044.24.11.452.198.638.088.18.2.322.337.424a.79.79 0 0 0 .49.154c.157 0 .3-.044.433-.132.132-.092.246-.212.344-.359.102-.151.18-.317.234-.498.059-.185.09-.373.096-.564l.666.418c0 .332-.061.662-.183.989-.117.327-.28.625-.49.893-.21.269-.455.484-.733.645a1.758 1.758 0 0 1-.886.234 2.29 2.29 0 0 1-1.128-.271 2.499 2.499 0 0 1-.828-.762c-.22-.322-.386-.7-.498-1.135a5.665 5.665 0 0 1-.169-1.421c0-.517.071-1.003.213-1.457.146-.459.354-.862.622-1.209.269-.346.594-.617.974-.813a2.7 2.7 0 0 1 1.275-.3c.464 0 .884.103 1.26.308.376.205.698.5.966.886.269.381.474.84.616 1.377.146.532.22 1.128.22 1.787v.732c0 .703-.062 1.355-.184 1.956a6.13 6.13 0 0 1-.556 1.611 4.44 4.44 0 0 1-.93 1.231 3.892 3.892 0 0 1-1.304.776c-.493.176-1.052.264-1.677.264h-.132v-1.773Zm-7.543-.139v1.436c0 .556-.137 1.113-.41 1.67a4.179 4.179 0 0 1-1.04 1.377l-1.099-.572c.122-.224.242-.451.359-.681.117-.225.215-.474.293-.747a3.42 3.42 0 0 0 .117-.937v-1.546h1.78Zm-4.38-8.862v10.664h-2.13v-10.664h2.13Zm-11.124 0h3.42c.713 0 1.321.122 1.824.366.503.244.889.605 1.157 1.084.269.479.403 1.069.403 1.772 0 .577-.078 1.07-.234 1.48a2.736 2.736 0 0 1-.667 1.018 3.315 3.315 0 0 1-1.033.645l-.651.388h-2.776l-.008-1.78h1.927c.293 0 .534-.064.725-.19a1.16 1.16 0 0 0 .432-.55c.097-.239.146-.517.146-.835 0-.337-.044-.625-.132-.864a1.066 1.066 0 0 0-.402-.557c-.181-.131-.418-.197-.71-.197h-1.275v8.884h-2.146v-10.664Zm4.841 10.664-1.956-4.754 2.249-.007 2 4.658v.103h-2.293Zm-10.451-10.664v10.664H56v-10.664h2.146Zm3.34 4.534v1.772h-3.882v-1.772h3.882Zm.41-4.534v1.78h-4.292v-1.78h4.292Z"/>
    <path id="SETTING_TIME_COLOR" fill="#000" d="M41.646 74.832V69.54H52.23v21.168h5.292V96H41.646v-5.292h5.292V74.832h-5.292ZM61.506 96V69.54h18.522V96H61.506Zm5.292-21.168v15.876h7.938V74.832h-7.938ZM85.315 96v-5.292h5.292V96h-5.292Zm0-15.876v-5.292h5.292v5.292h-5.292Zm29.117-10.584V96H95.91v-5.292h13.23v-5.292H98.556v-5.292h10.584v-5.292H95.91V69.54h18.522ZM119.719 96V69.54h18.522V96h-18.522Zm13.23-10.584h-7.938v5.292h7.938v-5.292Zm-7.938-5.292h7.938v-5.292h-7.938v5.292Z"/>
    <path id="SETTING_SUN_FILL_COLOR" fill="#FFA" d="M69 13.5a8.5 8.5 0 1 1-17 0 8.5 8.5 0 0 1 17 0Z"/>
    <path id="SETTING_SUN_STROKE_COLOR" fill="#000" fill-rule="evenodd" d="M60.5 19a5.5 5.5 0 1 0 0-11 5.5 5.5 0 0 0 0 11Zm0 3a8.5 8.5 0 1 0 0-17 8.5 8.5 0 0 0 0 17Z" clip-rule="evenodd"/>
</svg>