<svg width="144" height="168" viewBox="0 0 144 168" fill="none" xmlns="http://www.w3.org/2000/svg">
<g id="SVG Preview" clip-path="url(#clip0_141_2514)">
<rect width="144" height="168" fill="white"/>
<rect id="RingNight" y="86" width="144" height="82" fill="#0055AA"/>
<rect id="RingDay" width="144" height="82" fill="#05AAFF"/>
<path id="Sun" d="M52 8.5C52 13.1944 48.1944 17 43.5 17C38.8056 17 35 13.1944 35 8.5C35 3.80558 38.8056 0 43.5 0C48.1944 0 52 3.80558 52 8.5Z" fill="#FFFFAA"/>
<path id="SunStroke" fill-rule="evenodd" clip-rule="evenodd" d="M43.5 14C46.5376 14 49 11.5376 49 8.5C49 5.46243 46.5376 3 43.5 3C40.4624 3 38 5.46243 38 8.5C38 11.5376 40.4624 14 43.5 14ZM43.5 17C48.1944 17 52 13.1944 52 8.5C52 3.80558 48.1944 0 43.5 0C38.8056 0 35 3.80558 35 8.5C35 13.1944 38.8056 17 43.5 17Z" fill="black"/>
<path id="RingSunrise" d="M19 72L19 97L8.14564e-07 97L1.90735e-06 72L19 72Z" fill="#FFAAAA"/>
<path id="RingSunset" d="M144 72L144 97L125 97L125 72L144 72Z" fill="#FFAA01"/>
<g id="TwilightStroke">
<path fill-rule="evenodd" clip-rule="evenodd" d="M0 97H19L19 72L1.09278e-06 72L9.6165e-07 75L16 75L16 94H1.31134e-07L0 97Z" fill="black"/>
<path fill-rule="evenodd" clip-rule="evenodd" d="M144 72L125 72V97H144V94H128V75L144 75V72Z" fill="black"/>
</g>
<rect id="BG" x="16" y="16" width="112" height="136" fill="white"/>
<g id="SecondaryPips">
<path d="M16.9999 19.1213L19.1212 17L23.3638 21.2426L21.2425 23.3639L16.9999 19.1213Z" fill="#AAAAAA"/>
<path d="M125.243 16.9999L127.364 19.1213L123.121 23.3639L121 21.2426L125.243 16.9999Z" fill="#AAAAAA"/>
<path d="M16.9999 149.243L19.1212 151.364L23.3638 147.121L21.2425 145L16.9999 149.243Z" fill="#AAAAAA"/>
<path d="M125.243 151.364L127.364 149.243L123.121 145L121 147.121L125.243 151.364Z" fill="#AAAAAA"/>
<path d="M15.8301 105.404L21.7788 104.621L22.1703 107.596L16.2217 108.379L15.8301 105.404Z" fill="#AAAAAA"/>
<path d="M16.4905 38.2747L22.286 39.8276L21.5095 42.7253L15.714 41.1724L16.4905 38.2747Z" fill="#AAAAAA"/>
<path d="M33.2745 151.51L34.8274 145.714L37.7252 146.49L36.1723 152.286L33.2745 151.51Z" fill="#AAAAAA"/>
<path d="M34.8274 22.2859L33.2745 16.4903L36.1723 15.7139L37.7252 21.5094L34.8274 22.2859Z" fill="#AAAAAA"/>
<path d="M90.5953 145.83L91.3785 151.779L88.4041 152.17L87.621 146.221L90.5953 145.83Z" fill="#AAAAAA"/>
<path d="M87.6211 21.7785L88.4043 15.8299L91.3786 16.2214L90.5955 22.1701L87.6211 21.7785Z" fill="#AAAAAA"/>
<path d="M51.6208 151.778L52.404 145.83L55.3783 146.221L54.5951 152.17L51.6208 151.778Z" fill="#AAAAAA"/>
<path d="M54.5953 15.8299L55.3785 21.7786L52.4041 22.1701L51.621 16.2215L54.5953 15.8299Z" fill="#AAAAAA"/>
<path d="M106.827 152.286L105.275 146.49L108.172 145.714L109.725 151.509L106.827 152.286Z" fill="#AAAAAA"/>
<path d="M105.275 21.5095L106.827 15.714L109.725 16.4904L108.172 22.286L105.275 21.5095Z" fill="#AAAAAA"/>
<path d="M122.221 104.621L128.17 105.404L127.779 108.379L121.83 107.596L122.221 104.621Z" fill="#AAAAAA"/>
<path d="M121.714 39.8274L127.509 38.2745L128.286 41.1723L122.49 42.7252L121.714 39.8274Z" fill="#AAAAAA"/>
<path d="M15.7139 127.827L21.5094 126.275L22.2859 129.172L16.4903 130.725L15.7139 127.827Z" fill="#AAAAAA"/>
<path d="M16.2215 60.6213L22.1701 61.4044L21.7785 64.3787L15.8299 63.5956L16.2215 60.6213Z" fill="#AAAAAA"/>
<path d="M122.49 126.275L128.286 127.827L127.509 130.725L121.714 129.172L122.49 126.275Z" fill="#AAAAAA"/>
<path d="M121.83 61.4045L127.779 60.6213L128.17 63.5957L122.222 64.3788L121.83 61.4045Z" fill="#AAAAAA"/>
</g>
<g id="PrimaryPips">
<path d="M17 83H23V86H17V83Z" fill="black"/>
<path d="M70 23V18L73 18V23H70Z" fill="black"/>
<path d="M70 151V145H73V151H70Z" fill="black"/>
<path d="M121 83H127V86H121V83Z" fill="black"/>
</g>
<path id="RingStroke" fill-rule="evenodd" clip-rule="evenodd" d="M125 19H19V149H125V19ZM16 16V152H128V16H16Z" fill="black"/>
<g id="Date">
<path d="M102.779 96.3359V107H100.648V96.3359H102.779ZM105.43 96.3359V98.1157H98.0475V96.3359H105.43Z" fill="black"/>
<path d="M94.6789 103.448H96.8103C96.781 104.249 96.6198 104.925 96.3269 105.477C96.0339 106.023 95.6164 106.438 95.0744 106.722C94.5373 107.005 93.8879 107.146 93.1262 107.146C92.5354 107.146 92.0104 107.049 91.5515 106.854C91.0925 106.653 90.7019 106.36 90.3796 105.975C90.0573 105.589 89.8132 105.113 89.6472 104.546C89.486 103.975 89.4055 103.318 89.4055 102.576V100.767C89.4055 100.025 89.4909 99.3682 89.6618 98.7969C89.8376 98.2256 90.0866 97.7471 90.4089 97.3613C90.736 96.9707 91.1291 96.6777 91.5881 96.4824C92.052 96.2822 92.5744 96.1821 93.1555 96.1821C93.9318 96.1821 94.5812 96.3286 95.1037 96.6216C95.6262 96.9146 96.029 97.3418 96.3122 97.9033C96.6003 98.46 96.7736 99.1411 96.8322 99.9468H94.6862C94.6765 99.439 94.6203 99.041 94.5178 98.7529C94.4201 98.46 94.2639 98.2549 94.049 98.1377C93.8342 98.0156 93.5363 97.9546 93.1555 97.9546C92.8723 97.9546 92.6281 98.0059 92.423 98.1084C92.218 98.2061 92.0495 98.3647 91.9177 98.5845C91.7858 98.8042 91.6882 99.0923 91.6247 99.4487C91.5661 99.8052 91.5368 100.24 91.5368 100.752V102.576C91.5368 103.079 91.5637 103.509 91.6174 103.865C91.6711 104.217 91.7565 104.505 91.8737 104.729C91.9909 104.954 92.1496 105.118 92.3498 105.22C92.5549 105.323 92.8137 105.374 93.1262 105.374C93.4875 105.374 93.778 105.32 93.9978 105.213C94.2224 105.105 94.3884 104.913 94.4958 104.634C94.6032 104.356 94.6643 103.96 94.6789 103.448Z" fill="black"/>
<path d="M87.4358 100.84V102.62C87.4358 103.372 87.3431 104.031 87.1575 104.598C86.9769 105.159 86.7181 105.63 86.3812 106.011C86.0491 106.387 85.6463 106.67 85.1727 106.861C84.7039 107.051 84.1839 107.146 83.6126 107.146C83.0413 107.146 82.5188 107.051 82.0452 106.861C81.5765 106.67 81.1712 106.387 80.8294 106.011C80.4925 105.63 80.2313 105.159 80.0457 104.598C79.8602 104.031 79.7674 103.372 79.7674 102.62V100.84C79.7674 100.069 79.8577 99.395 80.0384 98.8188C80.219 98.2378 80.4803 97.7544 80.8221 97.3687C81.1639 96.978 81.5691 96.6851 82.0379 96.4897C82.5066 96.2896 83.0267 96.1895 83.5979 96.1895C84.1692 96.1895 84.6893 96.2896 85.158 96.4897C85.6268 96.6851 86.032 96.978 86.3738 97.3687C86.7156 97.7544 86.9769 98.2378 87.1575 98.8188C87.3431 99.395 87.4358 100.069 87.4358 100.84ZM85.3045 102.62V100.826C85.3045 100.318 85.2679 99.8857 85.1946 99.5293C85.1214 99.168 85.0115 98.8726 84.865 98.6431C84.7186 98.4136 84.5403 98.2451 84.3304 98.1377C84.1204 98.0303 83.8763 97.9766 83.5979 97.9766C83.3196 97.9766 83.073 98.0303 82.8582 98.1377C82.6482 98.2451 82.47 98.4136 82.3235 98.6431C82.1819 98.8726 82.0745 99.168 82.0013 99.5293C81.9329 99.8857 81.8987 100.318 81.8987 100.826V102.62C81.8987 103.108 81.9354 103.526 82.0086 103.873C82.0818 104.219 82.1917 104.502 82.3382 104.722C82.4847 104.942 82.6629 105.105 82.8729 105.213C83.0877 105.315 83.3343 105.367 83.6126 105.367C83.886 105.367 84.1277 105.315 84.3377 105.213C84.5525 105.105 84.7308 104.942 84.8724 104.722C85.014 104.502 85.1214 104.219 85.1946 103.873C85.2679 103.526 85.3045 103.108 85.3045 102.62Z" fill="black"/>
<path d="M68.8555 105.337H68.958C69.4268 105.337 69.8271 105.269 70.1592 105.132C70.4961 104.996 70.7695 104.795 70.9795 104.532C71.1943 104.263 71.3506 103.936 71.4482 103.55C71.5459 103.16 71.5947 102.713 71.5947 102.21V100.152C71.5947 99.771 71.5679 99.4414 71.5142 99.1631C71.4604 98.8799 71.3848 98.6455 71.2871 98.46C71.1895 98.2695 71.0796 98.1279 70.9575 98.0352C70.8354 97.9424 70.7036 97.896 70.562 97.896C70.396 97.896 70.2495 97.9546 70.1226 98.0718C69.9956 98.1841 69.8882 98.3354 69.8003 98.5259C69.7173 98.7163 69.6538 98.9336 69.6099 99.1777C69.5659 99.4219 69.5439 99.6758 69.5439 99.9395C69.5439 100.208 69.5659 100.464 69.6099 100.708C69.6538 100.948 69.7197 101.16 69.8076 101.346C69.8955 101.526 70.0078 101.668 70.1445 101.771C70.2812 101.873 70.4448 101.924 70.6353 101.924C70.7915 101.924 70.9355 101.88 71.0674 101.792C71.1992 101.7 71.314 101.58 71.4116 101.434C71.5142 101.282 71.5923 101.116 71.646 100.936C71.7046 100.75 71.7363 100.562 71.7412 100.372L72.4077 100.789C72.4077 101.121 72.3467 101.451 72.2246 101.778C72.1074 102.105 71.9438 102.403 71.7339 102.671C71.5239 102.94 71.2798 103.155 71.0015 103.316C70.728 103.472 70.4326 103.55 70.1152 103.55C69.6904 103.55 69.3145 103.46 68.9873 103.279C68.6602 103.094 68.3843 102.84 68.1597 102.518C67.9399 102.195 67.7739 101.817 67.6616 101.382C67.5493 100.948 67.4932 100.474 67.4932 99.9614C67.4932 99.4438 67.564 98.958 67.7056 98.5039C67.8521 98.0449 68.0596 97.6421 68.3281 97.2954C68.5967 96.9487 68.9214 96.6777 69.3022 96.4824C69.6831 96.2822 70.1079 96.1821 70.5767 96.1821C71.0405 96.1821 71.4604 96.2847 71.8364 96.4897C72.2124 96.6948 72.5347 96.9902 72.8032 97.376C73.0718 97.7568 73.2769 98.2158 73.4185 98.7529C73.5649 99.2852 73.6382 99.8809 73.6382 100.54V101.272C73.6382 101.976 73.5771 102.627 73.4551 103.228C73.333 103.824 73.1475 104.361 72.8984 104.839C72.6494 105.318 72.3394 105.728 71.9683 106.07C71.5972 106.407 71.1626 106.666 70.6646 106.846C70.1714 107.022 69.6123 107.11 68.9873 107.11H68.8555V105.337Z" fill="black"/>
<path d="M61.3127 105.198V106.634C61.3127 107.19 61.176 107.747 60.9025 108.304C60.6291 108.865 60.2824 109.324 59.8625 109.681L58.7639 109.109C58.8859 108.885 59.0056 108.658 59.1228 108.428C59.2399 108.204 59.3376 107.955 59.4157 107.681C59.4938 107.408 59.5329 107.095 59.5329 106.744V105.198H61.3127Z" fill="black"/>
<path d="M56.9334 96.3359V107H54.8021V96.3359H56.9334Z" fill="black"/>
<path d="M45.8085 96.3359H49.2289C49.9418 96.3359 50.5497 96.458 51.0526 96.7021C51.5556 96.9463 51.9413 97.3076 52.2099 97.7861C52.4784 98.2646 52.6127 98.8555 52.6127 99.5586C52.6127 100.135 52.5346 100.628 52.3783 101.038C52.2221 101.443 51.9999 101.783 51.7118 102.056C51.4237 102.325 51.0795 102.54 50.6791 102.701L50.0272 103.089H47.2514L47.244 101.309H49.1703C49.4633 101.309 49.705 101.246 49.8954 101.119C50.0907 100.987 50.2348 100.804 50.3275 100.569C50.4252 100.33 50.474 100.052 50.474 99.7344C50.474 99.3975 50.4301 99.1094 50.3422 98.8701C50.2592 98.626 50.1249 98.4404 49.9394 98.3135C49.7587 98.1816 49.5219 98.1157 49.2289 98.1157H47.9545V107H45.8085V96.3359ZM50.6498 107L48.6942 102.247L50.9428 102.239L52.9423 106.897V107H50.6498Z" fill="black"/>
<path d="M40.1987 96.3359V107H38.0527V96.3359H40.1987ZM43.5386 100.87V102.642H39.6567V100.87H43.5386ZM43.9487 96.3359V98.1157H39.6567V96.3359H43.9487Z" fill="black"/>
</g>
<g id="Time">
<path d="M95.0686 86.0001V63.6001H110.749V68.0801H99.5486V72.5601H110.749V86.0001H95.0686ZM99.5486 77.0401V81.5201H106.269V77.0401H99.5486Z" fill="black"/>
<path d="M90.9124 63.6001V86.0001H75.2324V81.5201H86.4324V77.0401H77.4724V72.5601H86.4324V68.0801H75.2324V63.6001H90.9124Z" fill="black"/>
<path d="M66.5836 86.0001V81.5201H71.0636V86.0001H66.5836ZM66.5836 72.5601V68.0801H71.0636V72.5601H66.5836Z" fill="black"/>
<path d="M46.7474 86.0001V63.6001H62.4274V86.0001H46.7474ZM51.2274 68.0801V81.5201H57.9474V68.0801H51.2274Z" fill="black"/>
<path d="M30.2549 68.0801V63.6001H39.2149V81.5201H43.6949V86.0001H30.2549V81.5201H34.7349V68.0801H30.2549Z" fill="black"/>
</g>
</g>
<defs>
<clipPath id="clip0_141_2514">
<rect width="144" height="168" fill="white"/>
</clipPath>
</defs>
</svg>
